G04 #@! TF.GenerationSoftware,KiCad,Pcbnew,7.0.9-7.0.9~ubuntu22.04.1*
G04 #@! TF.CreationDate,2023-12-04T14:44:26+01:00*
G04 #@! TF.ProjectId,CAN_Adaptateur,43414e5f-4164-4617-9074-61746575722e,rev?*
G04 #@! TF.SameCoordinates,Original*
G04 #@! TF.FileFunction,Other,ECO1*
%FSLAX46Y46*%
G04 Gerber Fmt 4.6, Leading zero omitted, Abs format (unit mm)*
G04 Created by KiCad (PCBNEW 7.0.9-7.0.9~ubuntu22.04.1) date 2023-12-04 14:44:26*
%MOMM*%
%LPD*%
G01*
G04 APERTURE LIST*
%ADD10C,0.200000*%
G04 APERTURE END LIST*
D10*
X127641101Y-76961980D02*
X127593482Y-77009600D01*
X127593482Y-77009600D02*
X127450625Y-77057219D01*
X127450625Y-77057219D02*
X127355387Y-77057219D01*
X127355387Y-77057219D02*
X127212530Y-77009600D01*
X127212530Y-77009600D02*
X127117292Y-76914361D01*
X127117292Y-76914361D02*
X127069673Y-76819123D01*
X127069673Y-76819123D02*
X127022054Y-76628647D01*
X127022054Y-76628647D02*
X127022054Y-76485790D01*
X127022054Y-76485790D02*
X127069673Y-76295314D01*
X127069673Y-76295314D02*
X127117292Y-76200076D01*
X127117292Y-76200076D02*
X127212530Y-76104838D01*
X127212530Y-76104838D02*
X127355387Y-76057219D01*
X127355387Y-76057219D02*
X127450625Y-76057219D01*
X127450625Y-76057219D02*
X127593482Y-76104838D01*
X127593482Y-76104838D02*
X127641101Y-76152457D01*
X128022054Y-76771504D02*
X128498244Y-76771504D01*
X127926816Y-77057219D02*
X128260149Y-76057219D01*
X128260149Y-76057219D02*
X128593482Y-77057219D01*
X128926816Y-77057219D02*
X128926816Y-76057219D01*
X128926816Y-76057219D02*
X129498244Y-77057219D01*
X129498244Y-77057219D02*
X129498244Y-76057219D01*
X130736340Y-76390552D02*
X130736340Y-77390552D01*
X130736340Y-76438171D02*
X130831578Y-76390552D01*
X130831578Y-76390552D02*
X131022054Y-76390552D01*
X131022054Y-76390552D02*
X131117292Y-76438171D01*
X131117292Y-76438171D02*
X131164911Y-76485790D01*
X131164911Y-76485790D02*
X131212530Y-76581028D01*
X131212530Y-76581028D02*
X131212530Y-76866742D01*
X131212530Y-76866742D02*
X131164911Y-76961980D01*
X131164911Y-76961980D02*
X131117292Y-77009600D01*
X131117292Y-77009600D02*
X131022054Y-77057219D01*
X131022054Y-77057219D02*
X130831578Y-77057219D01*
X130831578Y-77057219D02*
X130736340Y-77009600D01*
X131783959Y-77057219D02*
X131688721Y-77009600D01*
X131688721Y-77009600D02*
X131641102Y-76914361D01*
X131641102Y-76914361D02*
X131641102Y-76057219D01*
X132593483Y-76390552D02*
X132593483Y-77057219D01*
X132164912Y-76390552D02*
X132164912Y-76914361D01*
X132164912Y-76914361D02*
X132212531Y-77009600D01*
X132212531Y-77009600D02*
X132307769Y-77057219D01*
X132307769Y-77057219D02*
X132450626Y-77057219D01*
X132450626Y-77057219D02*
X132545864Y-77009600D01*
X132545864Y-77009600D02*
X132593483Y-76961980D01*
X133498245Y-76390552D02*
X133498245Y-77200076D01*
X133498245Y-77200076D02*
X133450626Y-77295314D01*
X133450626Y-77295314D02*
X133403007Y-77342933D01*
X133403007Y-77342933D02*
X133307769Y-77390552D01*
X133307769Y-77390552D02*
X133164912Y-77390552D01*
X133164912Y-77390552D02*
X133069674Y-77342933D01*
X133498245Y-77009600D02*
X133403007Y-77057219D01*
X133403007Y-77057219D02*
X133212531Y-77057219D01*
X133212531Y-77057219D02*
X133117293Y-77009600D01*
X133117293Y-77009600D02*
X133069674Y-76961980D01*
X133069674Y-76961980D02*
X133022055Y-76866742D01*
X133022055Y-76866742D02*
X133022055Y-76581028D01*
X133022055Y-76581028D02*
X133069674Y-76485790D01*
X133069674Y-76485790D02*
X133117293Y-76438171D01*
X133117293Y-76438171D02*
X133212531Y-76390552D01*
X133212531Y-76390552D02*
X133403007Y-76390552D01*
X133403007Y-76390552D02*
X133498245Y-76438171D01*
X127641101Y-78571980D02*
X127593482Y-78619600D01*
X127593482Y-78619600D02*
X127450625Y-78667219D01*
X127450625Y-78667219D02*
X127355387Y-78667219D01*
X127355387Y-78667219D02*
X127212530Y-78619600D01*
X127212530Y-78619600D02*
X127117292Y-78524361D01*
X127117292Y-78524361D02*
X127069673Y-78429123D01*
X127069673Y-78429123D02*
X127022054Y-78238647D01*
X127022054Y-78238647D02*
X127022054Y-78095790D01*
X127022054Y-78095790D02*
X127069673Y-77905314D01*
X127069673Y-77905314D02*
X127117292Y-77810076D01*
X127117292Y-77810076D02*
X127212530Y-77714838D01*
X127212530Y-77714838D02*
X127355387Y-77667219D01*
X127355387Y-77667219D02*
X127450625Y-77667219D01*
X127450625Y-77667219D02*
X127593482Y-77714838D01*
X127593482Y-77714838D02*
X127641101Y-77762457D01*
X128641101Y-78667219D02*
X128307768Y-78191028D01*
X128069673Y-78667219D02*
X128069673Y-77667219D01*
X128069673Y-77667219D02*
X128450625Y-77667219D01*
X128450625Y-77667219D02*
X128545863Y-77714838D01*
X128545863Y-77714838D02*
X128593482Y-77762457D01*
X128593482Y-77762457D02*
X128641101Y-77857695D01*
X128641101Y-77857695D02*
X128641101Y-78000552D01*
X128641101Y-78000552D02*
X128593482Y-78095790D01*
X128593482Y-78095790D02*
X128545863Y-78143409D01*
X128545863Y-78143409D02*
X128450625Y-78191028D01*
X128450625Y-78191028D02*
X128069673Y-78191028D01*
X129022054Y-78381504D02*
X129498244Y-78381504D01*
X128926816Y-78667219D02*
X129260149Y-77667219D01*
X129260149Y-77667219D02*
X129593482Y-78667219D01*
X130498244Y-78571980D02*
X130450625Y-78619600D01*
X130450625Y-78619600D02*
X130307768Y-78667219D01*
X130307768Y-78667219D02*
X130212530Y-78667219D01*
X130212530Y-78667219D02*
X130069673Y-78619600D01*
X130069673Y-78619600D02*
X129974435Y-78524361D01*
X129974435Y-78524361D02*
X129926816Y-78429123D01*
X129926816Y-78429123D02*
X129879197Y-78238647D01*
X129879197Y-78238647D02*
X129879197Y-78095790D01*
X129879197Y-78095790D02*
X129926816Y-77905314D01*
X129926816Y-77905314D02*
X129974435Y-77810076D01*
X129974435Y-77810076D02*
X130069673Y-77714838D01*
X130069673Y-77714838D02*
X130212530Y-77667219D01*
X130212530Y-77667219D02*
X130307768Y-77667219D01*
X130307768Y-77667219D02*
X130450625Y-77714838D01*
X130450625Y-77714838D02*
X130498244Y-77762457D01*
X131545864Y-77667219D02*
X131879197Y-78667219D01*
X131879197Y-78667219D02*
X132212530Y-77667219D01*
X132736340Y-77667219D02*
X132831578Y-77667219D01*
X132831578Y-77667219D02*
X132926816Y-77714838D01*
X132926816Y-77714838D02*
X132974435Y-77762457D01*
X132974435Y-77762457D02*
X133022054Y-77857695D01*
X133022054Y-77857695D02*
X133069673Y-78048171D01*
X133069673Y-78048171D02*
X133069673Y-78286266D01*
X133069673Y-78286266D02*
X133022054Y-78476742D01*
X133022054Y-78476742D02*
X132974435Y-78571980D01*
X132974435Y-78571980D02*
X132926816Y-78619600D01*
X132926816Y-78619600D02*
X132831578Y-78667219D01*
X132831578Y-78667219D02*
X132736340Y-78667219D01*
X132736340Y-78667219D02*
X132641102Y-78619600D01*
X132641102Y-78619600D02*
X132593483Y-78571980D01*
X132593483Y-78571980D02*
X132545864Y-78476742D01*
X132545864Y-78476742D02*
X132498245Y-78286266D01*
X132498245Y-78286266D02*
X132498245Y-78048171D01*
X132498245Y-78048171D02*
X132545864Y-77857695D01*
X132545864Y-77857695D02*
X132593483Y-77762457D01*
X132593483Y-77762457D02*
X132641102Y-77714838D01*
X132641102Y-77714838D02*
X132736340Y-77667219D01*
M02*
