G04 #@! TF.GenerationSoftware,KiCad,Pcbnew,7.0.9-7.0.9~ubuntu22.04.1*
G04 #@! TF.CreationDate,2023-12-04T14:44:26+01:00*
G04 #@! TF.ProjectId,CAN_Adaptateur,43414e5f-4164-4617-9074-61746575722e,rev?*
G04 #@! TF.SameCoordinates,Original*
G04 #@! TF.FileFunction,Copper,L1,Top*
G04 #@! TF.FilePolarity,Positive*
%FSLAX46Y46*%
G04 Gerber Fmt 4.6, Leading zero omitted, Abs format (unit mm)*
G04 Created by KiCad (PCBNEW 7.0.9-7.0.9~ubuntu22.04.1) date 2023-12-04 14:44:26*
%MOMM*%
%LPD*%
G01*
G04 APERTURE LIST*
G04 #@! TA.AperFunction,SMDPad,CuDef*
%ADD10R,3.000000X1.500000*%
G04 #@! TD*
G04 #@! TA.AperFunction,SMDPad,CuDef*
%ADD11R,3.000000X1.499997*%
G04 #@! TD*
G04 #@! TA.AperFunction,ComponentPad*
%ADD12R,1.800000X2.200000*%
G04 #@! TD*
G04 #@! TA.AperFunction,ComponentPad*
%ADD13O,1.800000X2.200000*%
G04 #@! TD*
G04 #@! TA.AperFunction,ComponentPad*
%ADD14R,2.200000X1.800000*%
G04 #@! TD*
G04 #@! TA.AperFunction,ComponentPad*
%ADD15O,2.200000X1.800000*%
G04 #@! TD*
G04 #@! TA.AperFunction,Conductor*
%ADD16C,0.600000*%
G04 #@! TD*
G04 #@! TA.AperFunction,Conductor*
%ADD17C,0.400000*%
G04 #@! TD*
G04 APERTURE END LIST*
D10*
X144710404Y-92305208D03*
X149210405Y-91035208D03*
X144710404Y-89765208D03*
X149210405Y-88495208D03*
X144710404Y-87225208D03*
X149210405Y-85955208D03*
D11*
X144710404Y-84685208D03*
X149210405Y-83415208D03*
D12*
X137040000Y-77500000D03*
D13*
X139580000Y-77500000D03*
X142120000Y-77500000D03*
X144660000Y-77500000D03*
X147200000Y-77500000D03*
D10*
X134710404Y-92305208D03*
X139210405Y-91035208D03*
X134710404Y-89765208D03*
X139210405Y-88495208D03*
X134710404Y-87225208D03*
X139210405Y-85955208D03*
D11*
X134710404Y-84685208D03*
X139210405Y-83415208D03*
D14*
X129400000Y-84060000D03*
D15*
X129400000Y-86600000D03*
X129400000Y-89140000D03*
X129400000Y-91680000D03*
D16*
X139464405Y-83161208D02*
X148956405Y-83161208D01*
X144964404Y-92559208D02*
X151508047Y-92559208D01*
X151508047Y-92559208D02*
X153991600Y-90075655D01*
X153991600Y-90075655D02*
X153991600Y-87362404D01*
X134710404Y-92305208D02*
X134964404Y-92559208D01*
X149210405Y-83415208D02*
X152326208Y-83415208D01*
X134964404Y-92559208D02*
X144456404Y-92559208D01*
X144456404Y-92559208D02*
X144710404Y-92305208D01*
X153991600Y-87362404D02*
X153991600Y-85080600D01*
X144710404Y-92305208D02*
X144964404Y-92559208D01*
X152326208Y-83415208D02*
X153991600Y-85080600D01*
D17*
X139210405Y-85955208D02*
X149210405Y-85955208D01*
X144710404Y-89765208D02*
X151186591Y-89765208D01*
D16*
X129400000Y-89140000D02*
X131740000Y-89140000D01*
X131740000Y-89140000D02*
X132400000Y-89800000D01*
D17*
X151629400Y-89322400D02*
X151629400Y-86325200D01*
X151186591Y-89765208D02*
X151629400Y-89322400D01*
X149210405Y-85955208D02*
X151259408Y-85955208D01*
D16*
X132434792Y-89765208D02*
X134710404Y-89765208D01*
X132400000Y-89800000D02*
X132434792Y-89765208D01*
D17*
X151259408Y-85955208D02*
X151629400Y-86325200D01*
X134710404Y-89765208D02*
X144710404Y-89765208D01*
D16*
X134710389Y-87225208D02*
X136350406Y-87225208D01*
X132725208Y-87225208D02*
X134710404Y-87225208D01*
D17*
X146425407Y-87225208D02*
X147695407Y-88495208D01*
D16*
X131800000Y-82800000D02*
X131800000Y-86300000D01*
D17*
X144710404Y-87225208D02*
X146425407Y-87225208D01*
X141500403Y-88495208D02*
X142770403Y-87225208D01*
D16*
X127480000Y-91680000D02*
X126900000Y-91100000D01*
X136350406Y-87225208D02*
X137620406Y-88495208D01*
D17*
X142770403Y-87225208D02*
X144710404Y-87225208D01*
D16*
X126900000Y-82800000D02*
X127600000Y-82100000D01*
X127600000Y-82100000D02*
X131100000Y-82100000D01*
D17*
X133709700Y-87506300D02*
X134429297Y-87506300D01*
X139210405Y-88495208D02*
X141500403Y-88495208D01*
X134429297Y-87506300D02*
X134710389Y-87225208D01*
D16*
X131100000Y-82100000D02*
X131800000Y-82800000D01*
X126900000Y-91100000D02*
X126900000Y-82800000D01*
X129400000Y-91680000D02*
X127480000Y-91680000D01*
D17*
X147695407Y-88495208D02*
X149210405Y-88495208D01*
D16*
X137620406Y-88495208D02*
X139210405Y-88495208D01*
X131800000Y-86300000D02*
X132725208Y-87225208D01*
D17*
X134710404Y-84685208D02*
X144710404Y-84685208D01*
D16*
X152351608Y-84685208D02*
X152823200Y-85156800D01*
D17*
X134710404Y-82989596D02*
X137040000Y-80660000D01*
X134710404Y-84685208D02*
X134710404Y-82989596D01*
X141910400Y-91035208D02*
X149210405Y-91035208D01*
D16*
X149210405Y-91035208D02*
X151872391Y-91035208D01*
D17*
X137040000Y-80660000D02*
X137040000Y-77500000D01*
D16*
X151872391Y-91035208D02*
X152823200Y-90084400D01*
D17*
X139210405Y-91035208D02*
X141885398Y-91035208D01*
X144710404Y-84685208D02*
X152351608Y-84685208D01*
D16*
X152823200Y-90084400D02*
X152823200Y-85156800D01*
G04 #@! TA.AperFunction,Conductor*
G36*
X137769723Y-74820185D02*
G01*
X137815478Y-74872989D01*
X137825422Y-74942147D01*
X137796397Y-75005703D01*
X137774978Y-75025244D01*
X137758718Y-75036911D01*
X137749210Y-75043733D01*
X137495210Y-75276097D01*
X137495206Y-75276101D01*
X137270463Y-75536887D01*
X137270460Y-75536891D01*
X137078151Y-75822405D01*
X137078141Y-75822422D01*
X137024317Y-75927290D01*
X136976193Y-75977944D01*
X136908322Y-75994538D01*
X136842255Y-75971804D01*
X136798965Y-75916961D01*
X136797044Y-75907044D01*
X136790000Y-75900000D01*
X136092155Y-75900000D01*
X136032627Y-75906401D01*
X136032620Y-75906403D01*
X135897913Y-75956645D01*
X135897906Y-75956649D01*
X135782812Y-76042809D01*
X135782809Y-76042812D01*
X135696649Y-76157906D01*
X135696645Y-76157913D01*
X135646403Y-76292620D01*
X135646401Y-76292627D01*
X135640000Y-76352155D01*
X135640000Y-77250000D01*
X136555500Y-77250000D01*
X136598246Y-77262551D01*
X136580507Y-77290156D01*
X136540000Y-77428111D01*
X136540000Y-77571889D01*
X136580507Y-77709844D01*
X136600080Y-77740301D01*
X136555500Y-77750000D01*
X135640000Y-77750000D01*
X135640000Y-78647844D01*
X135646401Y-78707372D01*
X135646403Y-78707379D01*
X135696645Y-78842086D01*
X135696649Y-78842093D01*
X135782809Y-78957187D01*
X135782812Y-78957190D01*
X135897906Y-79043350D01*
X135897913Y-79043354D01*
X136032620Y-79093596D01*
X136032627Y-79093598D01*
X136092155Y-79099999D01*
X136092172Y-79100000D01*
X136790000Y-79100000D01*
X136803907Y-79086092D01*
X136809685Y-79066417D01*
X136862489Y-79020662D01*
X136931647Y-79010718D01*
X136995203Y-79039743D01*
X137020767Y-79070396D01*
X137170076Y-79323206D01*
X137170081Y-79323212D01*
X137170082Y-79323214D01*
X137378974Y-79596843D01*
X137378982Y-79596852D01*
X137618766Y-79843850D01*
X137618767Y-79843851D01*
X137886093Y-80060764D01*
X137886099Y-80060768D01*
X137886103Y-80060771D01*
X138038482Y-80156967D01*
X138177198Y-80244538D01*
X138487994Y-80392592D01*
X138545831Y-80412145D01*
X138578650Y-80423241D01*
X138635853Y-80463359D01*
X138662287Y-80528036D01*
X138649557Y-80596736D01*
X138601706Y-80647648D01*
X138538936Y-80664709D01*
X137638957Y-80664709D01*
X137424971Y-80680013D01*
X137145367Y-80740837D01*
X136877238Y-80840844D01*
X136626095Y-80977979D01*
X136626087Y-80977984D01*
X136397017Y-81149463D01*
X136396999Y-81149479D01*
X136194675Y-81351803D01*
X136194659Y-81351821D01*
X136046074Y-81550310D01*
X135990141Y-81592182D01*
X135946807Y-81600000D01*
X132077796Y-81600000D01*
X132077796Y-81609299D01*
X132058111Y-81676338D01*
X132005307Y-81722093D01*
X131936149Y-81732037D01*
X131872593Y-81703012D01*
X131866115Y-81696980D01*
X131813405Y-81644270D01*
X131813387Y-81644254D01*
X131584317Y-81472775D01*
X131584309Y-81472770D01*
X131333166Y-81335635D01*
X131333167Y-81335635D01*
X131225915Y-81295632D01*
X131065046Y-81235631D01*
X131065043Y-81235630D01*
X131065037Y-81235628D01*
X130785433Y-81174804D01*
X130571448Y-81159500D01*
X128228552Y-81159500D01*
X128014566Y-81174804D01*
X127734962Y-81235628D01*
X127466833Y-81335635D01*
X127215690Y-81472770D01*
X127215682Y-81472775D01*
X126986612Y-81644254D01*
X126986594Y-81644270D01*
X126784270Y-81846594D01*
X126784254Y-81846612D01*
X126612775Y-82075682D01*
X126612770Y-82075690D01*
X126475635Y-82326833D01*
X126375628Y-82594962D01*
X126314804Y-82874566D01*
X126299500Y-83088552D01*
X126299500Y-85031448D01*
X126314804Y-85245431D01*
X126346666Y-85391894D01*
X126349500Y-85418253D01*
X126349500Y-86047595D01*
X126346841Y-86073136D01*
X126326241Y-86170999D01*
X126326241Y-86171004D01*
X126295673Y-86513884D01*
X126305875Y-86858008D01*
X126348141Y-87141136D01*
X126349500Y-87159444D01*
X126349500Y-88587595D01*
X126346841Y-88613136D01*
X126326241Y-88710999D01*
X126326241Y-88711004D01*
X126295673Y-89053884D01*
X126305875Y-89398008D01*
X126348141Y-89681136D01*
X126349500Y-89699444D01*
X126349500Y-91090604D01*
X126347832Y-91139408D01*
X126345245Y-91160712D01*
X126326242Y-91250995D01*
X126326241Y-91251004D01*
X126295673Y-91593884D01*
X126295673Y-91593893D01*
X126295673Y-91593897D01*
X126305875Y-91938006D01*
X126356703Y-92278492D01*
X126447446Y-92610577D01*
X126505347Y-92753345D01*
X126576829Y-92929602D01*
X126576830Y-92929604D01*
X126743031Y-93231075D01*
X126743032Y-93231077D01*
X126843382Y-93370932D01*
X126943730Y-93510785D01*
X127176099Y-93764791D01*
X127436880Y-93989531D01*
X127436885Y-93989534D01*
X127436887Y-93989536D01*
X127436891Y-93989539D01*
X127722405Y-94181848D01*
X127722407Y-94181849D01*
X127722410Y-94181851D01*
X128028683Y-94339050D01*
X128351399Y-94458922D01*
X128686027Y-94539783D01*
X129027870Y-94580500D01*
X129027877Y-94580500D01*
X129685988Y-94580500D01*
X129685990Y-94580500D01*
X129943655Y-94565209D01*
X130282486Y-94504313D01*
X130611736Y-94403769D01*
X130926783Y-94264990D01*
X131223206Y-94089924D01*
X131300971Y-94030556D01*
X131366201Y-94005523D01*
X131434611Y-94019730D01*
X131484480Y-94068666D01*
X131485046Y-94069691D01*
X131523174Y-94139517D01*
X131523179Y-94139525D01*
X131694658Y-94368595D01*
X131694674Y-94368613D01*
X131896998Y-94570937D01*
X131897016Y-94570953D01*
X132126086Y-94742432D01*
X132126094Y-94742437D01*
X132377237Y-94879572D01*
X132377236Y-94879572D01*
X132377240Y-94879573D01*
X132377243Y-94879575D01*
X132645358Y-94979577D01*
X132645364Y-94979578D01*
X132645366Y-94979579D01*
X132924970Y-95040403D01*
X132924972Y-95040403D01*
X132924976Y-95040404D01*
X133138956Y-95055708D01*
X136281852Y-95055708D01*
X136495832Y-95040404D01*
X136775450Y-94979577D01*
X137043565Y-94879575D01*
X137294719Y-94742434D01*
X137523799Y-94570947D01*
X137726143Y-94368603D01*
X137865944Y-94181851D01*
X137892415Y-94146490D01*
X137948348Y-94104618D01*
X137991682Y-94096800D01*
X141429126Y-94096800D01*
X141496165Y-94116485D01*
X141528393Y-94146490D01*
X141694658Y-94368595D01*
X141694674Y-94368613D01*
X141896998Y-94570937D01*
X141897016Y-94570953D01*
X142126086Y-94742432D01*
X142126094Y-94742437D01*
X142377237Y-94879572D01*
X142377236Y-94879572D01*
X142377240Y-94879573D01*
X142377243Y-94879575D01*
X142645358Y-94979577D01*
X142645364Y-94979578D01*
X142645366Y-94979579D01*
X142924970Y-95040403D01*
X142924972Y-95040403D01*
X142924976Y-95040404D01*
X143138956Y-95055708D01*
X146281852Y-95055708D01*
X146495832Y-95040404D01*
X146775450Y-94979577D01*
X147043565Y-94879575D01*
X147294719Y-94742434D01*
X147523799Y-94570947D01*
X147726143Y-94368603D01*
X147865944Y-94181851D01*
X147892415Y-94146490D01*
X147948348Y-94104618D01*
X147991682Y-94096800D01*
X152143796Y-94096800D01*
X152143796Y-92753345D01*
X152163481Y-92686306D01*
X152180115Y-92665664D01*
X154374203Y-90471575D01*
X154422644Y-90426335D01*
X154445641Y-90388516D01*
X154449213Y-90383266D01*
X154475961Y-90347997D01*
X154482545Y-90331298D01*
X154491944Y-90312374D01*
X154501272Y-90297037D01*
X154513211Y-90254420D01*
X154515237Y-90248398D01*
X154531476Y-90207221D01*
X154531476Y-90207219D01*
X154533311Y-90189371D01*
X154537258Y-90168599D01*
X154542100Y-90151320D01*
X154542100Y-90107061D01*
X154542425Y-90100716D01*
X154544722Y-90078374D01*
X154546952Y-90056684D01*
X154543903Y-90038999D01*
X154542100Y-90017931D01*
X154542100Y-85089997D01*
X154544362Y-85023774D01*
X154533883Y-84980774D01*
X154532696Y-84974531D01*
X154526670Y-84930682D01*
X154526670Y-84930680D01*
X154519521Y-84914222D01*
X154512780Y-84894178D01*
X154508533Y-84876748D01*
X154486838Y-84838164D01*
X154484014Y-84832478D01*
X154466380Y-84791880D01*
X154466380Y-84791879D01*
X154455058Y-84777963D01*
X154443157Y-84760476D01*
X154434368Y-84744844D01*
X154434367Y-84744843D01*
X154434366Y-84744841D01*
X154403056Y-84713531D01*
X154398810Y-84708825D01*
X154379595Y-84685207D01*
X154370878Y-84674492D01*
X154356212Y-84664139D01*
X154340045Y-84650520D01*
X152747224Y-83057698D01*
X152713739Y-82996375D01*
X152710905Y-82970017D01*
X152710905Y-82593761D01*
X152695601Y-82379781D01*
X152684084Y-82326839D01*
X152634776Y-82100171D01*
X152634775Y-82100169D01*
X152634774Y-82100163D01*
X152534772Y-81832048D01*
X152432228Y-81644254D01*
X152397634Y-81580899D01*
X152397629Y-81580891D01*
X152226150Y-81351821D01*
X152226134Y-81351803D01*
X152023810Y-81149479D01*
X152023792Y-81149463D01*
X151794722Y-80977984D01*
X151794714Y-80977979D01*
X151543571Y-80840844D01*
X151543572Y-80840844D01*
X151426220Y-80797074D01*
X151275451Y-80740840D01*
X151275448Y-80740839D01*
X151275442Y-80740837D01*
X150995838Y-80680013D01*
X150781853Y-80664709D01*
X148243149Y-80664709D01*
X148176110Y-80645024D01*
X148130355Y-80592220D01*
X148120411Y-80523062D01*
X148149436Y-80459506D01*
X148196545Y-80425799D01*
X148449599Y-80323172D01*
X148751079Y-80156966D01*
X149030785Y-79956270D01*
X149284791Y-79723901D01*
X149509531Y-79463120D01*
X149701851Y-79177590D01*
X149859050Y-78871317D01*
X149978922Y-78548601D01*
X150059783Y-78213973D01*
X150100500Y-77872130D01*
X150100500Y-77214010D01*
X150085209Y-76956345D01*
X150024313Y-76617514D01*
X149923769Y-76288264D01*
X149784990Y-75973217D01*
X149609924Y-75676794D01*
X149401027Y-75403158D01*
X149401024Y-75403155D01*
X149401017Y-75403147D01*
X149161233Y-75156149D01*
X149022690Y-75043733D01*
X148994411Y-75020787D01*
X148954759Y-74963263D01*
X148952500Y-74893430D01*
X148988354Y-74833461D01*
X149050938Y-74802397D01*
X149072544Y-74800500D01*
X154875500Y-74800500D01*
X154942539Y-74820185D01*
X154988294Y-74872989D01*
X154999500Y-74924500D01*
X154999500Y-95475500D01*
X154979815Y-95542539D01*
X154927011Y-95588294D01*
X154875500Y-95599500D01*
X126154500Y-95599500D01*
X126087461Y-95579815D01*
X126041706Y-95527011D01*
X126030500Y-95475500D01*
X126030500Y-74924500D01*
X126050185Y-74857461D01*
X126102989Y-74811706D01*
X126154500Y-74800500D01*
X137702684Y-74800500D01*
X137769723Y-74820185D01*
G37*
G04 #@! TD.AperFunction*
G04 #@! TA.AperFunction,Conductor*
G36*
X152866804Y-84741433D02*
G01*
X152895060Y-84762585D01*
X153404781Y-85272306D01*
X153438266Y-85333629D01*
X153441100Y-85359987D01*
X153441100Y-89796268D01*
X153421415Y-89863307D01*
X153404781Y-89883949D01*
X152355477Y-90933253D01*
X152294154Y-90966738D01*
X152224462Y-90961754D01*
X152168529Y-90919882D01*
X152144112Y-90854418D01*
X152143796Y-90845572D01*
X152143796Y-90692313D01*
X152163481Y-90625274D01*
X152180116Y-90604631D01*
X152226134Y-90558613D01*
X152226144Y-90558603D01*
X152397631Y-90329523D01*
X152534772Y-90078369D01*
X152634774Y-89810254D01*
X152634776Y-89810245D01*
X152695600Y-89530641D01*
X152695600Y-89530640D01*
X152695601Y-89530636D01*
X152710905Y-89316656D01*
X152710905Y-87673760D01*
X152695601Y-87459780D01*
X152650306Y-87251562D01*
X152650306Y-87198853D01*
X152695601Y-86990636D01*
X152710905Y-86776656D01*
X152710905Y-85133760D01*
X152695601Y-84919780D01*
X152686213Y-84876624D01*
X152691197Y-84806934D01*
X152733067Y-84751000D01*
X152798531Y-84726582D01*
X152866804Y-84741433D01*
G37*
G04 #@! TD.AperFunction*
M02*
